<svg width="42" height="42" viewBox="0 0 42 42" fill="none" xmlns="http://www.w3.org/2000/svg">
<path d="M124.541 69.8282C108.302 76.4246 80.9245 78.4438 70.3225 78.4438C59.7204 78.4438 48.9842 69.4244 29.6589 67.2705C23.0779 65.0529 17.7984 62.713 13.5545 60.5125C-0.671015 58.7895 2.57249 53.787 0 52.0586C6.97856 44.0892 28.7642 38.148 38.7847 36.1736C63.6123 29.9811 61.4651 37.789 73.8117 18.9424C86.1584 0.0958 82.535 13.3782 82.2665 15.8462C77.65 29.8465 82.1323 38.5519 84.9506 41.1545C87.5452 42.5007 94.4522 46.97 101.323 54.0779C109.912 62.9627 121.454 63.7704 124.541 62.6935C127.627 61.6165 130.848 54.0779 131.922 51.7893C132.781 49.9585 138.274 41.9622 140.913 38.1929L144 40.0775C140.69 47.7059 133.747 63.7166 132.459 66.732C130.848 70.5013 134.874 78.4438 134.74 78.3092C130.338 77.7707 126.106 72.4309 124.541 69.8282Z" fill="#2BB8FF"/>
<path d="M79.3141 79.5208C81.0587 83.8286 83.1612 92.9826 83.3402 97.2904C84.3691 100.566 87.8763 107.171 91.5266 99.8482C95.1769 92.5249 90.5872 79.4759 88.4399 76.1553C83.9217 75.213 77.6529 75.419 79.3141 79.5208Z" fill="#2BB8FF"/>
<path d="M100.17 76.5002C103.271 77.4154 109.164 80.2386 111.586 82.0108C113.815 82.8697 118.931 83.8174 116.531 78.6398C114.132 73.4622 105.04 70.3096 102.301 70.0434C99.827 72.1077 97.2176 75.6289 100.17 76.5002Z" fill="#2BB8FF"/>
<path d="M58.2442 71.4437C54.5039 73.7941 50.2498 81.883 48.8317 85.9531C46.899 88.7881 42.5738 93.3803 41.2004 85.3094C39.827 77.2385 44.0186 63.6358 47.2395 65.7897C51.8358 66.2038 61.9844 69.0932 58.2442 71.4437Z" fill="#2BB8FF"/>
<path d="M68.8462 133.637C56.929 135.253 48.4921 131.08 45.7633 128.791V125.022C47.3737 122.733 59.1836 117.752 65.4911 112.368C70.5372 108.06 77.3458 99.5341 80.1193 95.8096C80.1193 95.8096 94.8816 97.6943 97.4315 99.0405C99.9814 100.387 101.234 116.002 100.921 121.791C100.921 121.791 89.9161 125.695 86.4268 128.253C82.9376 130.81 80.7635 132.022 68.8462 133.637Z" fill="#2BB8FF"/>
<path d="M112.544 97.6653C107.097 98.3942 103.242 96.5113 101.994 95.4787V93.778C102.73 92.7455 104.211 90.0274 107.094 87.5979C109.4 85.6542 109.047 80.3935 110.315 78.7131C110.315 78.7131 117.556 77.8364 118.722 78.4438C119.887 79.0512 123.207 89.2939 123.064 91.9057C123.064 91.9057 120.316 93.2633 118.722 94.4173C117.127 95.5713 117.991 96.9365 112.544 97.6653Z" fill="#2BB8FF"/>
<path d="M31.9578 108.866C22.803 110.073 16.3218 106.26 14.2255 104.55V102.81C15.836 99.579 24.6792 99.0259 29.5247 95.0019C33.401 91.7828 37.8619 87.0157 39.9925 84.2324C39.9925 84.2324 52.1251 85.2457 54.0839 86.2517C56.0427 87.2577 57.2769 97.811 57.0363 102.137C57.0363 102.137 48.1437 102.931 45.4632 104.842C42.7828 106.753 41.1126 107.659 31.9578 108.866Z" fill="#2BB8FF"/>
<path d="M99.713 82.8862C98.532 82.3478 95.1053 78.5336 93.5396 76.6938L103.336 75.213C102.621 77.9951 100.894 83.4247 99.713 82.8862Z" fill="#2BB8FF"/>
<path d="M116.354 56.501C115.173 58.6549 110.941 59.7318 108.973 60.0011L113.452 62.5614L118.77 63.3665C118.054 62.2447 116.73 59.8395 117.159 59.1934C117.696 58.3856 117.83 53.8086 116.354 56.501Z" fill="#2BB8FF"/>
<path d="M118.485 75.1819C116.333 74.0048 112.82 73.7322 110.852 73.4629L120.649 70.0975C119.933 71.2193 119.323 72.3019 119.323 73.0785C119.323 74.5593 119.961 75.9896 118.485 75.1819Z" fill="#2BB8FF"/>
</svg>
