<svg width="1080" height="1920" viewBox="0 0 1080 1920" fill="none" xmlns="http://www.w3.org/2000/svg">
<path d="M1080 1920H0V0H1080V1920ZM548.267 912.846C548.535 910.376 552.157 897.097 539.812 915.942C527.465 934.789 529.612 926.982 504.785 933.174C494.765 935.148 472.979 941.089 466 949.059C468.572 950.787 465.329 955.79 479.555 957.513C483.799 959.713 489.078 962.053 495.659 964.271C500.656 964.827 505.078 965.846 509.072 967.046C507.559 971.004 506.562 976.828 507.063 981.329C506.394 981.268 505.992 981.232 505.992 981.232C503.862 984.016 499.401 988.783 495.524 992.002C490.679 996.026 481.836 996.579 480.226 999.81V1001.55C482.322 1003.26 488.803 1007.07 497.958 1005.87C507.113 1004.66 508.783 1003.75 511.463 1001.84C514.136 999.936 522.987 999.141 523.036 999.137C523.277 994.811 522.043 984.259 520.084 983.252C519.384 982.892 517.384 982.533 515.103 982.218C516.267 979.193 518.628 974.603 521.166 971.415C526.758 973.619 531.554 975.443 536.322 975.443C538.566 975.443 541.562 975.352 545.045 975.146C545.021 975.546 545.104 976.002 545.314 976.521C546.928 980.504 548.845 988.632 549.267 993.239C547.397 992.975 546.119 992.81 546.119 992.81C543.346 996.534 536.537 1005.06 531.491 1009.37C525.184 1014.75 513.375 1019.73 511.764 1022.02V1025.79C514.493 1028.08 522.93 1032.25 534.847 1030.64C546.763 1029.02 548.938 1027.81 552.427 1025.25C555.916 1022.7 566.921 1018.79 566.921 1018.79C567.234 1013 565.981 997.386 563.432 996.04C562.64 995.622 560.669 995.152 558.329 994.702C560.146 987.986 557.143 978.41 555.098 974.331C556.586 974.178 558.107 974.008 559.648 973.819C561.259 975.702 564.558 979.36 565.713 979.887C566.626 980.303 567.864 977.15 568.71 974.413C570.936 975.314 573.562 976.582 575.559 977.728C575.045 979.998 574.776 983.18 573.094 984.598C570.211 987.027 568.73 989.746 567.994 990.778V992.479C569.241 993.511 573.097 995.394 578.544 994.665C583.99 993.936 583.127 992.571 584.722 991.417C586.316 990.263 589.064 988.905 589.064 988.905C589.207 986.293 585.887 976.051 584.722 975.443C584.365 975.258 583.44 975.212 582.327 975.236C581.373 973.473 579.653 971.957 577.712 970.726C577.856 970.692 578.001 970.659 578.145 970.625C580.127 970.87 582.749 971.232 584.484 972.182C585.961 972.989 585.323 971.559 585.323 970.078C585.323 969.642 585.518 969.11 585.813 968.528C587.468 967.998 589.052 967.433 590.541 966.828C592.107 969.431 596.338 974.771 600.74 975.31C600.868 975.432 596.85 967.499 598.459 963.732C599.747 960.717 606.69 944.706 610 937.077L606.913 935.192C604.274 938.962 598.781 946.958 597.922 948.789C596.848 951.077 593.628 958.616 590.541 959.693C589.428 960.082 587.217 960.223 584.442 959.831C583.72 958.609 582.79 956.75 583.159 956.193C583.696 955.386 583.831 950.809 582.354 953.501C581.239 955.536 577.399 956.609 575.318 956.948C572.591 955.577 569.831 953.672 567.323 951.078C560.452 943.97 553.545 939.5 550.95 938.154C548.132 935.551 543.65 926.846 548.267 912.846Z" fill="#2BB8FF"/>
</svg>
