<svg width="24" height="24" viewBox="0 0 24 24" fill="none" xmlns="http://www.w3.org/2000/svg">
<g clip-path="url(#clip0_31_503)">
<path fill-rule="evenodd" clip-rule="evenodd" d="M10 4.99902C10 3.89445 10.8954 2.99902 12 2.99902H12.01C13.1146 2.99902 14.01 3.89445 14.01 4.99902V5.00902C14.01 6.11359 13.1146 7.00902 12.01 7.00902H12C10.8954 7.00902 10 6.11359 10 5.00902V4.99902ZM10 11.999C10 10.8945 10.8954 9.99902 12 9.99902H12.01C13.1146 9.99902 14.01 10.8945 14.01 11.999V12.009C14.01 13.1136 13.1146 14.009 12.01 14.009H12C10.8954 14.009 10 13.1136 10 12.009V11.999ZM12 16.999C10.8954 16.999 10 17.8945 10 18.999V19.009C10 20.1136 10.8954 21.009 12 21.009H12.01C13.1146 21.009 14.01 20.1136 14.01 19.009V18.999C14.01 17.8945 13.1146 16.999 12.01 16.999H12Z" fill="#C9C9C9"/>
</g>
<defs>
<clipPath id="clip0_31_503">
<rect width="24" height="24" fill="white"/>
</clipPath>
</defs>
</svg>
