<svg width="25" height="25" viewBox="0 0 25 25" fill="none" xmlns="http://www.w3.org/2000/svg">
<path d="M9.73075 14.2222C7.39076 14.219 2.73255 15.3828 2.7361 17.7128L2.73877 19.4628L16.7388 19.4815L16.7361 17.7315C16.7325 15.4015 12.0708 14.2253 9.73075 14.2222ZM5.07572 17.4659C5.91483 16.8871 7.94381 16.2198 9.73381 16.2222C11.5238 16.2245 13.5548 16.8973 14.3957 17.4784L5.07572 17.4659ZM9.72808 12.4722C11.6581 12.4747 13.2257 10.9068 13.2227 8.97684C13.2198 7.04684 11.6474 5.47475 9.7174 5.47217C7.7874 5.4696 6.2198 7.0375 6.22275 8.9675C6.22569 10.8975 7.79808 12.4696 9.72808 12.4722ZM9.72045 7.47217C10.5505 7.47328 11.2215 8.14417 11.2227 8.97417C11.224 9.80417 10.555 10.4733 9.72503 10.4722C8.89503 10.4711 8.22401 9.80016 8.22274 8.97017C8.22148 8.14017 8.89045 7.47106 9.72045 7.47217ZM16.7708 14.2916C17.9321 15.1331 18.7338 16.2542 18.7361 17.7342L18.7388 19.4842L22.7388 19.4895L22.7361 17.7395C22.733 15.7195 19.2312 14.5648 16.7708 14.2916ZM15.7281 12.4802C17.6581 12.4827 19.2257 10.9148 19.2227 8.98485C19.2198 7.05485 17.6474 5.48276 15.7174 5.48018C15.1774 5.47946 14.6776 5.60879 14.2179 5.82818C14.8493 6.71902 15.221 7.80951 15.2227 8.97951C15.2245 10.1495 14.8562 11.239 14.2275 12.1282C14.6879 12.3488 15.1881 12.4795 15.7281 12.4802Z" fill="black"/>
</svg>
