<svg width="25" height="25" viewBox="0 0 25 25" fill="none" xmlns="http://www.w3.org/2000/svg">
<g clip-path="url(#clip0_31_695)">
<path d="M21.6489 12.639C21.6517 14.4959 21.092 16.2208 20.1305 17.6527C18.5182 20.0537 15.7763 21.6311 12.6627 21.627C9.54902 21.6228 6.80227 20.038 5.18267 17.6327C4.21676 16.1982 3.65176 14.4719 3.64893 12.615C3.64134 7.64442 7.66463 3.62037 12.6352 3.627C17.6057 3.63364 21.6413 7.66845 21.6489 12.639Z" stroke="#292929" stroke-width="2"/>
<path d="M14.6443 9.62966C14.646 10.7342 13.752 11.6285 12.6474 11.627C11.5428 11.6255 10.646 10.7289 10.6443 9.62433C10.6427 8.51976 11.5367 7.62552 12.6413 7.627C13.7459 7.62847 14.6427 8.5251 14.6443 9.62966Z" stroke="#292929" stroke-width="2"/>
<path d="M15.6535 15.6309L9.65348 15.6229C7.84173 15.6205 6.31314 16.823 5.82369 18.4742C7.47725 20.4008 9.92849 21.6233 12.6626 21.6269C15.3968 21.6306 17.8443 20.4147 19.492 18.4925C18.9975 16.8399 17.4652 15.6333 15.6535 15.6309Z" stroke="#292929" stroke-width="2"/>
</g>
<defs>
<clipPath id="clip0_31_695">
<rect width="24" height="24" fill="white" transform="matrix(0.999999 0.00133466 0.00152599 0.999999 0.630615 0.610962)"/>
</clipPath>
</defs>
</svg>
